<svg xmlns="http://www.w3.org/2000/svg" viewBox="0 0 200 200"><defs><style>.cls-1{fill:#c1272d;}.cls-2{fill:none;}</style></defs><g id="圖層_2" data-name="圖層 2"><g id="圖層_1-2" data-name="圖層 1"><path class="cls-1" d="M17.34,101.6C17.34,86,27.63,77,39.49,77a19.79,19.79,0,0,1,14.12,6.09L48,89.89c-2.36-2.19-4.89-3.73-8.29-3.73-6.43,0-11.52,5.67-11.52,15.08,0,9.65,4.49,15.25,11.35,15.25a12.34,12.34,0,0,0,9.18-4.38l5.6,6.66a19.35,19.35,0,0,1-15.16,6.89C27.28,125.66,17.34,117.4,17.34,101.6Z"/><path class="cls-1" d="M60.58,113.69V74.34H71.17v39.78c0,2.27,1,3,1.91,3a4.75,4.75,0,0,0,1.3-.14l1.26,7.8a13.67,13.67,0,0,1-5.31.89C63.06,125.66,60.58,120.92,60.58,113.69Z"/><path class="cls-1" d="M79.1,106.94c0-11.88,8.36-18.74,17.4-18.74s17.4,6.86,17.4,18.74-8.36,18.72-17.4,18.72S79.1,118.79,79.1,106.94Zm24,0c0-6.18-2.17-10.2-6.55-10.2s-6.55,4-6.55,10.2,2.17,10.17,6.55,10.17S103.05,113.12,103.05,106.94Z"/><path class="cls-1" d="M117.61,120.67l4.77-6.6c3.23,2.45,6.22,3.75,9.21,3.75,3.15,0,4.51-1.2,4.51-3.07,0-2.35-3.54-3.42-7.21-4.86-4.38-1.69-9.45-4.6-9.45-10.5,0-6.66,5.4-11.19,13.64-11.19a20.26,20.26,0,0,1,12.59,4.53l-4.73,6.35c-2.54-1.84-5.05-3-7.53-3-2.73,0-4.08,1.07-4.08,2.86,0,2.27,3.35,3.15,7,4.49,4.52,1.68,9.62,4.22,9.62,10.75s-5.1,11.53-14.67,11.53A23.25,23.25,0,0,1,117.61,120.67Z"/><path class="cls-1" d="M150.59,106.94c0-11.59,8.27-18.74,16.85-18.74,10.18,0,15.22,7.4,15.22,17.15a24.25,24.25,0,0,1-.44,4.68H160.85c1,5.18,4.5,7.56,9.26,7.56a14.89,14.89,0,0,0,7.73-2.34l3.5,6.38a23.29,23.29,0,0,1-12.68,4C158.48,125.66,150.59,118.77,150.59,106.94Zm23-3.91c0-3.93-1.71-6.76-5.94-6.76-3.34,0-6.23,2.24-7,6.76Z"/><rect class="cls-2" width="200" height="200"/></g></g></svg>