<?xml version="1.0" encoding="utf-8"?>
<!-- Generator: Adobe Illustrator 24.0.2, SVG Export Plug-In . SVG Version: 6.00 Build 0)  -->
<svg version="1.1" id="圖層_1" xmlns="http://www.w3.org/2000/svg" xmlns:xlink="http://www.w3.org/1999/xlink" x="0px" y="0px"
	 viewBox="0 0 160.9 43.1" style="enable-background:new 0 0 160.9 43.1;" xml:space="preserve">
<style type="text/css">
	.st0{fill:#142979;}
	.st1{fill:url(#SVGID_1_);}
	.st2{fill:url(#SVGID_2_);}
	.st3{fill:none;}
</style>
<g>
	<g>
		<path class="st0" d="M131.3,30.1c-8.7-3.9-8.6-10-8.6-15.9c0-0.4,0-2.8,0-2.8c0-0.3-0.2-0.5-0.5-0.5h-2.1c-0.3,0-0.5,0.2-0.5,0.5
			c0,0,0,2.4,0,2.8c0,6,0.1,12-8.6,15.9c-0.1,0-0.1,0.1-0.1,0.2V32c0,0.1,0.1,0.1,0.1,0.2c0,0,0.1,0,0.1,0c0,0,0,0,0.1,0
			c0.1,0,6.6-1.9,10-7.7c3.4,5.8,10,7.7,10,7.7c0,0,0,0,0.1,0c0,0,0.1,0,0.1,0c0,0,0.1-0.1,0.1-0.2v-1.7
			C131.5,30.2,131.4,30.1,131.3,30.1z"/>
	</g>
	<g>
		<path class="st0" d="M61.2,16.9C61.2,16.9,61.3,16.9,61.2,16.9c1.5-0.2,2.8-0.9,4.2-2c0.2-0.2,0.7-0.6,0.7-0.6
			c0.4-0.4,0.8-0.7,1.2-0.9c1.1-0.5,3.2-0.5,4-0.5c0.8,0,2.9,0,3.9,0.5c0.4,0.2,0.8,0.5,1.2,0.9c0,0,0.5,0.4,0.7,0.6
			c1.4,1.1,2.7,1.7,4.1,2c0,0,0,0,0,0c0.1,0,0.2-0.1,0.2-0.2c0,0,0-2,0-2c0-0.1-0.1-0.2-0.2-0.2c-1-0.3-1.7-0.9-2.5-1.5
			c-1.2-1-2.5-2-4.9-2.1c0,0-1.9-0.1-2.7-0.1c-0.8,0-2.7,0.1-2.7,0.1c-2.4,0.1-3.7,1.1-4.9,2.1c-0.8,0.6-1.5,1.2-2.5,1.5
			c-0.1,0-0.2,0.1-0.2,0.2c0,0,0,2,0,2C61,16.8,61.1,16.9,61.2,16.9z"/>
		<path class="st0" d="M79.5,20c0.3,0,0.7-0.1,0.9-0.3l1-0.8c0.1-0.1,0.1-0.1,0.1-0.2c0-0.2-0.1-0.3-0.3-0.3H61.5
			c-0.3,0-0.5,0.2-0.5,0.5v0.6c0,0.3,0.2,0.5,0.5,0.5h7.7v4.2h-7.3c-0.3,0-0.5,0.2-0.5,0.5v0.6c0,0.3,0.2,0.5,0.5,0.5h0.2
			c0,0,0.1,0,0.1,0h7v5h-7.7c-0.3,0-0.5,0.2-0.5,0.5v0.6c0,0.3,0.2,0.5,0.5,0.5h18c0.3,0,0.7-0.1,0.9-0.3l1-0.8
			c0.1,0,0.1-0.1,0.1-0.2c0-0.2-0.1-0.3-0.3-0.3h-7.9v-5h5.8c0.3,0,0.7-0.1,0.9-0.3l1-0.8c0.1,0,0.1-0.1,0.1-0.2
			c0-0.2-0.1-0.3-0.3-0.3h-7.6V20H79.5z"/>
	</g>
	<g>
		<path class="st0" d="M155.1,21.8h-7.1v-0.8h4.4c0.3,0,0.6-0.1,0.9-0.3l0.9-0.7c0.1,0,0.1-0.1,0.1-0.2c0-0.1-0.1-0.3-0.3-0.3H138
			c-0.3,0-0.5,0.2-0.5,0.5v0.5c0,0.3,0.2,0.5,0.5,0.5h6.3v0.8h-7.3c-0.3,0-0.5,0.2-0.5,0.5v0.5c0,0.3,0.2,0.5,0.5,0.5h16.6
			c0.3,0,0.6-0.1,0.9-0.3l0.9-0.7c0.1,0,0.1-0.1,0.1-0.2C155.4,21.9,155.3,21.8,155.1,21.8z"/>
		<g>
			<path class="st0" d="M136.4,31.8c-0.2,0-0.3-0.2-0.3-0.4v-4.5c0-0.1-0.1-0.4,0.4-0.4h7.7c0.1,0,0.5,0,0.5,0.4v2.7
				c0,1-0.4,1.6-0.8,1.8c-0.5,0.3-1,0.3-1.2,0.3H136.4z M140.7,30.4c0.5,0,0.9-0.2,1-0.5c0.1-0.3,0.1-0.7,0.1-0.7v-1.3h-3v2.5H140.7
				z"/>
			<path class="st0" d="M157.8,26.5h-2.2v-0.8h0.6c0.3,0,0.7-0.1,0.9-0.3l1-0.7c0.1,0,0.1-0.1,0.1-0.2c0-0.1-0.1-0.3-0.3-0.3h-23.2
				c-0.3,0-0.5,0.2-0.5,0.5v0.5c0,0.3,0.2,0.5,0.5,0.5l17.7,0v0.8h-5.8c-0.3,0-0.5,0.2-0.5,0.5v0.6c0,0.3,0.2,0.5,0.5,0.5h1.7l0,0
				l-0.8,0.5c0,0-0.1,0.1-0.1,0.1c0,0,0,0.1,0.1,0.1c0,0,0,0,0,0c2.1,0.9,2.4,1.8,2.4,1.8c0,0,0,0,0,0.1c0,0.1,0,0.2,0,0.2h-2.3
				c-0.2,0-0.3,0.1-0.3,0.3v0.5c0,0.2,0.1,0.3,0.3,0.3h0.4l0,0h5.6c0,0,2,0,2-2.1v-1.9l0,0h0.3c0.3,0,0.7-0.1,1-0.3l1.1-0.8
				c0.1-0.1,0.1-0.1,0.1-0.2C158.1,26.7,157.9,26.5,157.8,26.5z M151.2,31h-1.1c0,0,0.9-0.6,0.9-0.6s0.1-0.1,0.1-0.1
				c-0.2-1.1-0.7-2-1.1-2.1h2.3c0,0,0,2.2,0,2.3C152.4,31,151.8,31,151.2,31z"/>
		</g>
		<path class="st0" d="M156.5,12.5h-8.3l0-1.1c0-0.3-0.2-0.5-0.5-0.5h-2.9c-0.3,0-0.5,0.2-0.5,0.5v1.1h-8.7c-0.3,0-0.5,0.2-0.5,0.5
			v0.5c0,0.3,0.2,0.5,0.5,0.5h8.7v0.9h-7c-0.2,0-0.4,0.2-0.4,0.4v0.5c0,0.2,0.2,0.4,0.4,0.4h16c0.2,0,0.6-0.1,0.8-0.3l0.9-0.7
			c0.1,0,0.1-0.1,0.1-0.2c0-0.1-0.1-0.2-0.2-0.2h-6.6v-0.9h6.6c0.3,0,0.7-0.1,0.9-0.3l1-0.7c0.1,0,0.1-0.1,0.1-0.2
			C156.8,12.6,156.7,12.5,156.5,12.5z"/>
		<path class="st0" d="M158.1,18.8c0-0.2,0-0.7-0.3-1c-0.5-0.6-1.5-0.7-1.6-0.7h-21.9c-0.3,0-0.5,0.2-0.5,0.5v0.5
			c0,0.3,0.2,0.5,0.5,0.5l20.4,0c0.1,0,0.4,0,0.4,0.3v1.2c0,0.2,0.1,0.3,0.3,0.3h2.4c0.2,0,0.3-0.1,0.3-0.3V18.8L158.1,18.8z"/>
	</g>
	<g>
		<path class="st0" d="M93.9,20.4h-2.6v-5.2H92c0.3,0,0.8-0.1,1-0.3l1.1-0.8c0.1-0.1,0.1-0.1,0.1-0.2c0-0.2-0.1-0.3-0.3-0.3h-7.6
			c-0.3,0-0.5,0.2-0.5,0.5v0.6c0,0.3,0.2,0.5,0.5,0.5h2.3v5.2h-2.2c-0.3,0-0.6,0.3-0.6,0.6v0.7c0,0.3,0.3,0.6,0.6,0.6h2.2v6.2
			c-0.8,0.2-1.6,0.4-2.4,0.6c-0.1,0-0.2,0.1-0.2,0.2l0,2.7c0,0.1,0,0.1,0.1,0.2c0,0,0.1,0,0.1,0c0,0,0,0,0,0c0,0,4.6-1.4,7.5-4
			c0,0,0-0.1,0-0.2c0,0,0-0.9,0-0.9c0-0.1-0.1-0.2-0.2-0.2c0,0-0.9,0.3-2.3,0.8v-5.4h0.3c0.3,0,0.9-0.2,1.1-0.4l1.3-1
			c0.1-0.1,0.1-0.2,0.1-0.3C94.2,20.5,94.1,20.4,93.9,20.4z"/>
		<g>
			<path class="st0" d="M103.6,12.4c1.6,1.1,2.3,2.3,2.3,2.3c0,0.1,0.1,0.1,0.2,0.1c0,0,0.1,0,0.1,0l0.8-0.4c0.1,0,0.1-0.1,0.1-0.2
				c-0.3-2.2-1.8-3-1.9-3.1c0,0-0.1,0-0.1,0c0,0-0.1,0-0.1,0l-1.5,0.9c-0.1,0-0.1,0.1-0.1,0.2S103.6,12.4,103.6,12.4z"/>
			<path class="st0" d="M107.9,31.9l-3.3-8.7l3.1-4.8c0,0,0.1-0.1,0.1-0.1c0-0.1-0.1-0.1-0.1-0.1l-2.4,0c-0.1,0-0.2,0-0.2,0.1
				c0,0-2.5,3.4-2.5,3.4v-4.7h3.3c0.3,0,0.7-0.1,1-0.3l1.1-0.8c0.1-0.1,0.1-0.1,0.1-0.2c0-0.2-0.1-0.3-0.3-0.3h-5.2l0-3.9
				c0-0.3-0.2-0.5-0.5-0.5h-2.1c-0.3,0-0.5,0.2-0.5,0.5l0,3.9h-4.4c-0.3,0-0.5,0.2-0.5,0.5v0.6c0,0.3,0.2,0.5,0.5,0.5h4.4h0v4.5
				l-2.1-3.3c0,0-0.1-0.1-0.2-0.1c0,0-2.2,0-2.3,0c-0.1,0-0.2,0.1-0.1,0.1c0,0,0,0.1,0.1,0.1l2.9,4.9l-4.3,8.7c0,0.1,0,0.1,0,0.2
				c0,0.1,0.1,0.1,0.2,0.1h2.1c0.2,0,0.4-0.2,0.4-0.3l3.3-6.7v4.9c0,1-0.7,0.9-0.9,0.9l-0.3,0c-0.2,0-0.4,0.2-0.4,0.4v0.4
				c0,0.2,0.2,0.4,0.4,0.4h2.3c0.6,0,1-0.2,1.4-0.5c0.7-0.7,0.7-1.4,0.7-1.9v-4.7l2.6,6.8c0.1,0.3,0.4,0.3,0.5,0.3h2.2
				c0.1,0,0.1,0,0.2-0.1C107.9,32,107.9,32,107.9,31.9z"/>
		</g>
		<path class="st0" d="M93.7,26.9"/>
	</g>
	<linearGradient id="SVGID_1_" gradientUnits="userSpaceOnUse" x1="36.2374" y1="8.3385" x2="21.8219" y2="29.4072">
		<stop  offset="0" style="stop-color:#3A93D0"/>
		<stop  offset="1" style="stop-color:#26327B"/>
	</linearGradient>
	<path class="st1" d="M39.6,37.5c0,0-0.1,0-0.1,0c-1.2,0.3-2.5,0.4-3.8,0.4c-7.8,0-14.4-5-16.8-11.9c3.2-0.7,11-2.7,17-6.4
		c0.2-0.1,0.3-0.4,0.2-0.7c-0.1-0.2-0.3-0.3-0.5-0.3c-0.1,0-0.1,0-0.2,0c-6.9,2.8-12.7,3.7-16.6,4.4c-0.2,0-0.4,0.1-0.6,0.1
		c-0.2-1-0.3-2-0.3-3c0-6.9,4.1-13.3,10.4-16.2c0.2-0.1,0.4-0.4,0.3-0.7C28.5,3,28.3,2.8,28,2.8c0,0-0.1,0-0.1,0
		C19.3,4.7,13,12.5,13,21.3c0,0.8,0,1.5,0.1,2.2c0,0-0.1,0-0.1,0c-3.1,0-4.9-0.7-5.5-2.2c-0.5-1.5,0.6-3.6,3.3-5.8
		c0.2-0.2,0.3-0.5,0.1-0.7c-0.1-0.1-0.3-0.2-0.4-0.2c-0.1,0-0.2,0-0.3,0.1C4.8,17.9,2,21.5,3,24.2c0.7,2,3.3,3,7.2,3l0,0
		c1.1,0,2.4-0.1,3.7-0.3c2.4,7.7,9.6,13.3,18,13.3c2.7,0,5.4-0.6,7.9-1.7c0.2-0.1,0.4-0.4,0.3-0.7C40,37.6,39.8,37.5,39.6,37.5z"/>
	<linearGradient id="SVGID_2_" gradientUnits="userSpaceOnUse" x1="48.17" y1="16.4727" x2="33.7549" y2="37.5409">
		<stop  offset="0" style="stop-color:#3A93D0"/>
		<stop  offset="1" style="stop-color:#26327B"/>
	</linearGradient>
	<path class="st2" d="M50.8,22.1c-0.1-0.8-0.2-1.6-0.3-2.2c-0.1-0.3-0.2-1.1-1-1.1c-0.3,0-0.6,0.1-1,0.4c-0.3,0.2-0.7,0.4-1.1,0.7
		c-2.3,1.4-7,4.4-17.9,8.4c-0.2,0.1-0.4,0.3-0.3,0.6c0.1,0.2,0.2,0.4,0.5,0.4c0,0,0,0,0.1,0c2.5-0.4,12.3-2.7,18.1-5.7l0,0.6
		c0.3,4.4-1.3,8.8-4.4,12c-0.2,0.2-0.2,0.4,0,0.6c0.1,0.1,0.2,0.2,0.4,0.2c0.1,0,0.2,0,0.3-0.1C48.6,33.3,51.2,27.9,50.8,22.1z"/>
</g>
<rect class="st3" width="160.9" height="43.1"/>
</svg>
